<?xml version="1.0" standalone="no"?>
<!DOCTYPE svg PUBLIC "-//W3C//DTD SVG 20010904//EN"
 "http://www.w3.org/TR/2001/REC-SVG-20010904/DTD/svg10.dtd">
<svg version="1.0" xmlns="http://www.w3.org/2000/svg"
 width="1024.000000pt" height="1536.000000pt" viewBox="0 0 1024.000000 1536.000000"
 preserveAspectRatio="xMidYMid meet">
<metadata>
Created by potrace 1.16, written by Peter Selinger 2001-2019
</metadata>
<g transform="translate(0.000000,1536.000000) scale(0.100000,-0.100000)"
fill="#000000" stroke="none">
<path d="M4802 12710 c-55 -12 -96 -41 -112 -81 -20 -47 9 -578 34 -631 27
-56 71 -73 191 -73 119 0 169 19 199 76 19 34 19 49 10 325 -11 319 -15 338
-76 370 -38 20 -181 28 -246 14z m157 -128 c5 -10 13 -131 17 -269 7 -247 7
-251 -14 -262 -33 -18 -90 -14 -101 7 -5 10 -15 129 -22 265 -9 198 -9 250 1
262 19 23 106 20 119 -3z"/>
<path d="M5410 12698 c0 -7 -4 -51 -10 -98 -42 -368 -71 -652 -67 -656 2 -2
34 -7 70 -11 78 -7 70 -23 91 175 7 73 15 135 17 137 10 9 84 -15 102 -34 19
-19 19 -25 8 -121 -6 -55 -11 -118 -11 -139 l0 -38 64 -11 c35 -7 68 -12 74
-12 6 0 13 60 17 155 8 176 5 188 -62 220 l-38 19 30 6 c85 18 104 54 112 200
l6 109 -30 30 c-36 35 -104 57 -228 71 -118 13 -145 13 -145 -2z m215 -123
c40 -8 47 -35 35 -123 -12 -86 -24 -102 -79 -102 -61 0 -62 3 -46 125 8 61 15
111 15 113 0 1 11 0 25 -3 14 -3 36 -7 50 -10z"/>
<path d="M4250 12639 c-107 -21 -201 -39 -207 -39 -16 0 -16 -15 -3 -78 l11
-48 66 13 c36 8 68 11 71 8 3 -2 29 -139 58 -302 69 -388 55 -347 112 -338 73
10 92 16 92 29 0 6 -25 153 -55 326 -38 220 -51 316 -43 321 6 4 33 10 61 13
28 4 54 9 58 11 7 5 -10 106 -20 116 -3 4 -94 -11 -201 -32z"/>
<path d="M6107 12507 c-137 -509 -175 -652 -174 -653 1 0 76 -21 167 -45 l165
-45 17 55 c10 31 18 57 18 57 0 1 -39 14 -87 28 -49 15 -93 29 -99 31 -8 2 -2
35 17 101 16 54 31 100 34 102 2 2 32 -5 66 -17 35 -12 68 -21 74 -21 10 0 51
109 43 114 -2 1 -38 13 -81 26 -43 13 -76 28 -73 34 2 6 14 48 27 94 13 45 27
82 31 82 5 0 49 -13 99 -29 62 -20 91 -26 94 -18 2 7 10 33 18 58 l15 47 -156
47 c-87 25 -164 48 -172 51 -12 3 -22 -20 -43 -99z"/>
<path d="M3700 12483 c-30 -14 -57 -27 -59 -29 -2 -2 5 -27 17 -56 80 -204
132 -341 130 -343 -2 -2 -63 68 -137 156 -74 88 -140 164 -147 170 -10 8 -30
5 -79 -12 -36 -12 -65 -26 -65 -30 0 -4 57 -155 126 -336 69 -180 130 -340
136 -355 l10 -27 51 20 c29 11 55 24 59 28 4 3 -31 105 -77 225 -47 121 -84
220 -82 222 2 2 260 -315 300 -370 14 -20 16 -20 76 -1 34 10 64 22 67 27 5 8
-252 715 -265 729 -3 4 -31 -5 -61 -18z"/>
<path d="M6738 12355 c-33 -19 -59 -61 -92 -149 -44 -116 -37 -141 71 -274 24
-30 43 -64 43 -75 -1 -33 -52 -121 -73 -125 -24 -5 -74 16 -81 34 -3 8 4 35
14 60 11 25 20 49 20 53 0 7 -109 66 -123 66 -14 0 -67 -138 -67 -176 0 -52
30 -83 123 -129 170 -82 228 -61 307 113 43 96 41 121 -25 214 -83 117 -90
135 -69 189 9 24 27 55 40 69 20 22 26 23 53 14 17 -6 34 -15 37 -21 3 -5 -4
-32 -16 -61 l-22 -51 22 -16 c13 -8 41 -25 62 -38 l38 -23 32 68 c57 120 40
167 -84 233 -72 39 -166 50 -210 25z"/>
<path d="M3025 12174 c-33 -19 -59 -38 -58 -42 3 -14 347 -645 360 -661 2 -3
32 11 68 29 l65 34 -47 85 c-25 47 -63 115 -83 151 -21 36 -84 148 -140 250
-56 102 -103 186 -104 186 0 1 -28 -14 -61 -32z"/>
<path d="M2581 11899 c-91 -65 -169 -123 -173 -127 -4 -4 4 -24 18 -43 14 -18
29 -40 34 -48 6 -12 17 -7 56 21 27 19 54 38 61 41 7 5 71 -77 169 -215 87
-123 170 -240 184 -260 l27 -38 61 46 62 46 -34 47 c-125 173 -326 462 -326
470 0 6 20 24 45 41 25 17 45 34 45 39 0 4 -15 28 -32 53 l-33 45 -164 -118z"/>
<path d="M7569 11827 c-42 -56 -147 -193 -234 -305 -88 -114 -154 -207 -149
-212 5 -5 50 -39 99 -76 148 -110 218 -134 280 -95 17 10 92 94 166 187 150
186 185 236 194 276 17 66 -41 146 -180 251 -44 33 -85 64 -90 68 -7 5 -41
-32 -86 -94z m211 -177 c0 -8 -9 -30 -21 -49 -34 -56 -257 -328 -275 -335 -17
-6 -83 24 -102 47 -10 12 9 43 110 174 68 87 141 182 163 211 l39 52 43 -42
c24 -23 43 -49 43 -58z"/>
<path d="M4890 11624 c-443 -37 -767 -114 -1165 -277 -146 -60 -453 -209 -498
-243 -27 -20 -24 -19 133 49 158 69 408 155 598 207 936 257 1895 200 2822
-167 91 -36 187 -76 213 -90 27 -13 51 -23 53 -21 6 7 -301 166 -426 221 -375
164 -709 257 -1080 302 -127 15 -549 28 -650 19z"/>
<path d="M2167 11562 l-47 -48 56 -108 c31 -59 54 -110 51 -113 -3 -2 -53 23
-112 57 l-107 63 -59 -59 -59 -58 27 -15 c16 -9 95 -43 178 -76 l150 -61 52
-119 c29 -66 65 -155 80 -197 15 -43 30 -78 33 -78 3 0 29 24 58 54 l53 54
-62 117 c-34 64 -59 119 -55 122 7 7 98 -47 167 -100 l50 -38 70 62 c38 34 69
65 69 69 0 4 -66 35 -147 70 -82 34 -166 70 -188 80 -39 17 -43 24 -120 193
-44 97 -82 177 -85 177 -3 0 -27 -22 -53 -48z"/>
<path d="M7910 11201 l-275 -268 119 -126 c66 -70 122 -127 126 -127 3 0 25
19 47 43 l42 42 -69 76 -69 76 77 76 77 76 55 -63 54 -63 47 40 47 41 -59 65
-59 66 68 68 67 68 77 -83 77 -83 42 42 42 42 -122 130 c-68 72 -126 131 -130
131 -3 0 -130 -121 -281 -269z"/>
<path d="M4820 11404 c-693 -46 -1422 -271 -2010 -619 -293 -174 -369 -250
-370 -373 0 -53 25 -182 41 -213 7 -14 -12 -25 -114 -69 -122 -54 -506 -236
-516 -245 -2 -3 51 -58 119 -123 l124 -118 -53 -238 c-54 -239 -72 -316 -86
-349 -5 -12 9 -6 46 19 108 72 255 137 558 245 91 32 170 64 176 71 6 7 50 60
98 118 47 58 110 131 140 163 30 31 53 57 52 57 -1 0 -71 -36 -156 -80 -85
-43 -181 -91 -214 -105 l-60 -25 60 55 c89 83 190 147 380 239 200 99 327 151
525 218 356 120 750 198 1155 228 181 13 633 13 806 0 401 -31 883 -127 1214
-243 237 -84 563 -235 707 -330 78 -51 227 -167 215 -167 -25 0 -222 98 -397
198 l-45 26 55 -60 c31 -32 99 -113 151 -179 77 -97 103 -123 135 -134 375
-130 594 -224 688 -296 35 -26 46 -31 42 -18 -10 33 -73 296 -107 442 l-33
145 122 117 123 117 -43 25 c-70 40 -313 159 -456 223 -117 52 -132 61 -127
79 40 127 45 248 14 313 -59 121 -553 415 -989 587 -351 139 -746 234 -1170
281 -137 15 -662 27 -800 18z m340 -269 c44 -23 50 -43 50 -160 0 -111 -12
-156 -47 -170 -16 -6 -16 -8 4 -15 40 -16 51 -48 55 -163 l3 -107 -56 0 c-74
0 -83 11 -89 119 l-5 86 -47 3 -48 3 0 -105 0 -106 -65 0 -65 0 0 63 c0 34 -3
176 -7 315 l-6 252 147 0 c112 0 154 -4 176 -15z m-487 -311 c43 -169 76 -308
75 -309 -2 -1 -33 -5 -70 -9 l-67 -6 -13 60 c-13 64 -13 65 -80 54 l-38 -7 0
-57 0 -58 -66 -11 c-37 -7 -69 -10 -71 -7 -5 5 24 626 30 632 2 3 150 19 202
23 18 1 28 -29 98 -305z m1018 288 c3 -4 12 -142 18 -307 7 -165 13 -304 14
-310 2 -10 -119 -8 -135 2 -5 2 -8 28 -8 58 0 59 -6 65 -70 65 l-39 0 -6 -55
-7 -56 -69 2 c-42 1 -69 6 -69 13 0 10 135 562 146 595 3 11 25 12 112 6 59
-4 110 -10 113 -13z m375 -65 c3 -3 -16 -113 -42 -246 -26 -133 -45 -243 -42
-246 2 -2 37 -11 78 -20 41 -9 76 -17 78 -20 7 -7 -19 -105 -29 -105 -12 0
-283 52 -287 55 -2 2 15 94 37 206 22 112 47 245 56 294 9 50 18 95 20 101 3
9 19 9 65 -1 34 -7 63 -15 66 -18z m-1961 -21 c22 -22 39 -68 47 -125 3 -22
-2 -26 -37 -33 -22 -4 -50 -10 -61 -13 -19 -4 -22 1 -28 36 -7 41 -7 41 -43
36 -51 -9 -56 -17 -42 -71 8 -34 17 -48 33 -51 11 -3 55 -12 96 -20 102 -20
121 -36 143 -121 43 -172 27 -209 -108 -243 -111 -28 -147 -27 -176 3 -21 22
-64 144 -55 154 7 6 79 21 103 22 18 0 23 -8 30 -42 5 -24 12 -42 16 -40 4 1
17 2 30 2 44 0 50 12 37 74 -13 65 -15 66 -132 91 -107 22 -121 36 -147 143
-33 130 -16 158 116 197 104 31 147 32 178 1z m2553 -123 c73 -34 77 -75 26
-236 -19 -61 -49 -155 -66 -207 -50 -158 -72 -168 -255 -119 -67 17 -126 34
-131 38 -7 4 -4 30 9 76 11 39 47 169 80 290 33 121 62 225 64 232 4 12 205
-43 273 -74z m-3005 -100 c125 -379 148 -456 140 -463 -4 -3 -28 -12 -52 -19
-23 -7 -49 -15 -56 -18 -10 -3 -40 74 -109 287 -53 160 -96 295 -96 299 0 5
96 45 122 50 3 0 27 -61 51 -136z m-323 -28 c10 -9 35 -61 55 -115 38 -101 39
-126 7 -162 -14 -17 -13 -18 16 -18 41 0 65 -26 97 -109 15 -36 33 -76 41 -89
14 -22 13 -23 -31 -42 -81 -35 -97 -26 -137 75 l-25 60 -41 -1 c-23 0 -45 -3
-47 -6 -3 -3 11 -47 31 -97 20 -51 35 -94 33 -96 -2 -2 -30 -15 -62 -29 -53
-23 -58 -24 -64 -8 -3 9 -51 130 -106 267 -116 291 -112 281 -95 288 7 3 65
28 128 57 122 54 163 59 200 25z m3860 -75 c0 -4 -36 -139 -79 -301 -88 -328
-76 -308 -163 -269 l-47 20 14 48 c8 26 15 52 15 57 0 6 -21 18 -46 28 -44 16
-47 16 -60 0 -7 -10 -18 -33 -24 -50 -7 -18 -14 -33 -17 -33 -19 0 -123 44
-123 53 0 5 73 130 162 276 l161 267 104 -45 c56 -25 103 -48 103 -51z"/>
<path d="M4980 10946 l0 -96 40 0 c52 0 62 20 58 113 l-3 72 -47 3 -48 3 0
-95z"/>
<path d="M5566 11009 c-6 -16 -51 -207 -61 -256 -6 -31 -5 -33 24 -34 17 -1
37 -2 44 -3 9 -1 11 33 9 149 -4 147 -7 172 -16 144z"/>
<path d="M6436 10644 c-31 -108 -55 -198 -53 -201 3 -2 24 -5 48 -6 l43 -2 53
175 c29 96 53 182 53 192 0 15 -45 38 -75 38 -6 0 -36 -85 -69 -196z"/>
<path d="M3182 10654 c-19 -8 -32 -20 -29 -27 3 -7 17 -43 32 -82 16 -38 29
-72 31 -73 1 -2 19 1 38 8 28 9 36 17 36 36 0 34 -50 154 -64 153 -6 0 -26 -7
-44 -15z"/>
<path d="M6965 10530 c-42 -72 -75 -133 -73 -134 9 -9 70 -37 73 -34 7 9 86
290 82 294 -2 3 -39 -54 -82 -126z"/>
<path d="M1624 10953 l-101 -136 296 -221 295 -222 87 101 c48 55 96 109 108
119 11 11 21 22 21 26 0 3 -26 17 -57 30 l-56 23 -49 -56 -49 -56 -85 65 -84
65 45 56 c25 30 45 59 45 63 0 8 -79 70 -89 70 -4 0 -24 -25 -46 -56 -22 -31
-43 -58 -47 -60 -12 -7 -138 90 -133 102 2 6 27 44 56 84 42 57 50 74 38 80
-7 5 -29 20 -48 34 -19 14 -37 26 -40 26 -3 -1 -51 -62 -107 -137z"/>
<path d="M8520 10967 c-36 -28 -167 -132 -292 -230 -126 -98 -228 -181 -228
-184 0 -3 41 -61 92 -129 l92 -124 46 27 c25 14 48 28 52 32 4 3 -18 40 -48
81 -29 41 -54 77 -54 80 0 3 113 90 251 193 l250 188 -23 32 c-14 18 -33 44
-44 59 -10 15 -21 27 -24 27 -3 0 -34 -24 -70 -52z"/>
<path d="M1569 10242 c-69 -45 -172 -162 -213 -246 -53 -107 -69 -194 -64
-351 6 -163 28 -250 109 -411 65 -132 66 -131 45 51 -8 66 -17 161 -21 210 -3
50 -9 110 -12 135 -3 25 -2 42 2 38 16 -15 96 -462 107 -600 l12 -147 57 101
c63 111 103 221 114 310 10 82 -10 179 -76 373 -69 205 -83 271 -77 372 5 80
22 128 61 171 28 30 10 28 -44 -6z"/>
<path d="M8650 10223 c69 -110 60 -227 -38 -513 l-67 -195 0 -130 c1 -121 3
-136 31 -210 17 -44 54 -122 81 -173 l50 -93 7 93 c10 131 30 263 76 488 l40
195 -6 -105 c-3 -58 -14 -183 -25 -278 -10 -95 -19 -178 -19 -184 0 -21 112
216 136 288 70 209 48 470 -53 637 -41 68 -144 173 -202 205 l-41 23 30 -48z"/>
<path d="M6762 9621 c-144 -75 -274 -147 -288 -160 l-25 -22 22 -38 c31 -56
61 -88 89 -96 24 -8 24 -7 7 19 -16 23 -16 29 -3 61 19 45 72 71 110 54 14 -7
27 -18 30 -26 3 -8 2 -12 -2 -9 -5 3 -9 -8 -9 -25 0 -30 -25 -58 -53 -59 -8 0
-4 6 10 13 16 8 26 23 28 40 3 27 -13 38 -21 15 -2 -7 -3 -5 -2 4 4 25 -9 30
-39 17 -31 -14 -35 -49 -9 -75 16 -16 16 -16 -4 -10 -17 6 -21 2 -21 -21 0
-16 5 -34 10 -40 15 -19 0 -16 -38 8 l-34 21 0 -86 c0 -85 -1 -87 -27 -98
-147 -60 -172 -78 -204 -140 -18 -35 -19 -64 -19 -451 0 -320 -3 -417 -12
-425 -7 -5 -32 -13 -55 -17 l-43 -7 0 35 c0 46 -24 174 -60 317 -124 496 -53
741 247 845 38 13 68 28 68 32 0 4 -10 27 -22 50 l-22 41 -46 -14 c-291 -87
-442 -373 -381 -719 8 -44 38 -172 67 -285 41 -163 52 -223 53 -291 1 -56 6
-92 15 -102 9 -12 15 -61 19 -162 l5 -145 45 0 44 0 -3 163 -4 162 43 3 42 3
0 -546 0 -547 29 -29 29 -29 322 0 322 0 29 29 29 29 0 545 c0 475 2 546 15
551 11 4 15 20 15 56 0 36 -4 52 -15 56 -13 5 -15 60 -15 412 0 392 -1 407
-21 449 -28 57 -70 88 -163 119 l-76 26 -1 86 c-1 48 -1 90 0 94 0 4 -10 10
-24 14 -16 4 -25 13 -25 25 0 17 3 18 20 9 12 -6 51 -13 88 -15 77 -5 164 -30
305 -87 91 -37 127 -42 127 -19 0 34 -220 136 -402 186 -47 13 -59 20 -64 41
-14 55 22 85 235 195 47 24 84 49 84 54 -1 13 -41 42 -68 49 -13 3 -106 -40
-283 -133z"/>
<path d="M775 9602 c90 -55 150 -197 220 -522 76 -352 136 -472 378 -759 55
-64 103 -120 109 -126 5 -5 -5 22 -22 60 -48 105 -77 187 -116 320 -39 132
-124 488 -119 494 9 9 84 -200 179 -501 34 -109 66 -201 70 -205 5 -5 5 3 0
17 -5 14 -8 149 -9 300 l0 275 -33 94 c-18 52 -48 124 -68 160 -128 244 -358
411 -564 411 l-55 0 30 -18z"/>
<path d="M9331 9604 c-204 -55 -391 -244 -498 -504 -53 -128 -58 -170 -58
-467 0 -150 3 -269 6 -265 3 4 27 84 54 177 56 199 122 397 159 475 15 30 25
48 22 40 -2 -9 -23 -101 -46 -205 -66 -297 -139 -534 -191 -624 -11 -18 -19
-35 -17 -36 2 -2 39 40 83 92 286 338 331 428 415 828 57 269 106 391 186 465
l44 40 -53 -1 c-28 0 -76 -7 -106 -15z"/>
<path d="M2522 9256 c-91 -32 -95 -34 -114 -77 -86 -191 -162 -461 -200 -714
-20 -137 -17 -568 5 -720 100 -672 421 -1277 916 -1721 l113 -102 29 56 28 56
-107 102 c-186 176 -352 384 -484 606 -451 762 -505 1682 -143 2436 30 61 53
112 52 111 -1 0 -44 -15 -95 -33z"/>
<path d="M7630 9286 c0 -2 25 -55 55 -118 109 -226 190 -525 220 -806 71 -662
-147 -1385 -582 -1932 -86 -109 -320 -347 -417 -425 -41 -33 -75 -62 -75 -66
-1 -3 33 -11 75 -18 l75 -12 47 37 c86 70 328 318 412 424 225 283 396 611
495 951 143 490 159 945 49 1419 -32 137 -98 338 -137 419 l-32 64 -92 33
c-51 18 -93 32 -93 30z"/>
<path d="M1721 8942 c-41 -64 -87 -145 -103 -180 -89 -195 -100 -473 -31 -767
23 -99 91 -290 100 -281 2 2 -2 37 -8 77 -18 116 -6 385 25 569 15 85 29 160
31 165 3 6 3 -28 0 -75 -3 -47 -10 -164 -16 -260 -6 -104 -7 -221 -2 -290 l8
-115 19 55 c10 30 42 107 71 170 73 159 80 195 80 390 0 174 -7 226 -56 421
-17 63 -33 143 -37 176 l-7 61 -74 -116z"/>
<path d="M8440 9015 c0 -28 -18 -123 -40 -213 -48 -202 -65 -335 -57 -472 8
-136 25 -198 96 -350 33 -69 64 -138 69 -155 8 -26 10 -21 17 50 7 72 5 190
-10 525 l-5 115 24 -133 c45 -247 55 -473 26 -630 -10 -58 0 -44 39 50 87 214
123 526 86 744 -27 154 -60 234 -168 404 -79 123 -77 122 -77 65z"/>
<path d="M615 8390 c11 -55 72 -208 111 -280 75 -137 191 -266 313 -349 118
-80 211 -115 402 -151 61 -12 136 -32 168 -46 70 -31 64 -26 -84 74 -66 44
-167 119 -225 166 -110 89 -230 198 -193 175 73 -46 493 -338 520 -362 l33
-29 -45 127 c-79 222 -101 268 -165 337 -69 76 -144 119 -250 143 -358 82
-478 126 -564 204 l-28 26 7 -35z"/>
<path d="M9610 8405 c-23 -27 -128 -86 -207 -115 -43 -15 -159 -47 -258 -69
-207 -48 -275 -80 -350 -163 -58 -65 -80 -107 -143 -283 -28 -77 -54 -149 -58
-160 -6 -17 -3 -16 22 6 16 14 101 75 189 134 88 60 201 137 250 172 l90 63
-75 -70 c-107 -100 -289 -241 -402 -312 -54 -33 -98 -61 -98 -63 0 -1 26 8 59
21 32 13 119 35 192 49 255 47 373 107 529 271 119 125 203 269 255 437 28 88
29 111 5 82z"/>
<path d="M4849 8207 c6 -8 18 -42 27 -77 27 -108 3 -192 -90 -315 -72 -94 -76
-104 -76 -174 0 -34 -4 -61 -9 -61 -12 0 -67 108 -76 149 l-7 35 -24 -39 c-39
-65 -77 -198 -78 -275 -1 -66 -2 -70 -24 -70 -32 0 -94 34 -110 60 -7 12 -17
46 -22 74 -6 35 -25 79 -57 131 -41 68 -48 86 -48 131 0 28 -3 50 -7 47 -13
-7 -9 -72 7 -110 9 -20 31 -61 51 -90 22 -34 38 -73 44 -108 14 -85 46 -119
142 -149 24 -7 68 -102 54 -117 -8 -9 -8 -10 0 -6 7 4 14 -4 18 -19 7 -25 79
-104 96 -104 5 0 11 -8 14 -17 4 -10 27 -28 54 -40 53 -24 144 -55 149 -50 2
2 -18 14 -43 27 -52 27 -133 111 -157 163 -20 41 -24 157 -5 157 6 0 28 -18
49 -40 l38 -39 11 57 c22 114 50 189 100 267 29 44 57 91 63 105 10 21 12 12
18 -70 5 -76 13 -114 43 -190 21 -52 42 -107 48 -122 9 -24 13 -26 31 -17 12
6 42 30 66 53 l43 41 -5 -99 c-5 -84 -10 -108 -37 -162 -17 -35 -48 -77 -68
-95 -20 -17 -27 -26 -15 -20 12 6 31 11 42 11 12 0 21 4 21 9 0 5 14 14 30 21
17 7 30 16 30 20 0 16 35 16 45 -1 13 -22 115 -132 115 -125 0 4 -25 33 -55
66 -30 33 -55 67 -55 75 0 9 18 40 40 69 84 111 118 265 91 411 -12 65 -69
191 -98 217 -17 16 -18 14 -20 -26 -2 -53 -36 -136 -69 -167 -41 -38 -54 -13
-65 127 -5 66 -14 142 -19 169 -21 99 -92 205 -184 275 -53 40 -78 52 -57 27z"/>
<path d="M8280 7954 c0 -53 -36 -175 -84 -283 -91 -205 -106 -321 -81 -605 9
-103 13 -202 9 -220 -4 -21 -3 -28 4 -21 23 23 85 241 112 395 l30 165 -6
-115 c-7 -171 -38 -348 -71 -412 -28 -58 4 -24 59 60 94 145 142 258 173 412
23 112 17 300 -13 380 -22 62 -86 199 -114 245 l-18 30 0 -31z"/>
<path d="M1921 7905 c-97 -204 -121 -286 -121 -415 0 -136 34 -276 101 -416
28 -61 144 -244 153 -244 3 0 -2 19 -10 43 -29 81 -45 172 -59 331 -8 88 -13
162 -10 164 5 6 11 -21 36 -168 25 -153 40 -214 77 -308 l29 -73 7 118 c19
355 19 407 2 493 -10 47 -33 123 -53 170 -80 192 -96 238 -107 305 l-12 69
-33 -69z"/>
<path d="M6218 7624 c3 -21 0 -34 -7 -34 -7 0 -9 5 -5 12 5 7 3 8 -7 2 -8 -5
-39 -7 -69 -6 -40 2 -51 0 -40 -7 13 -9 13 -11 -1 -11 -18 0 -20 -8 -44 -200
-20 -163 -20 -233 3 -253 27 -25 132 -23 163 2 23 19 24 23 22 163 -1 78 -7
172 -12 208 -5 38 -5 69 0 75 11 11 12 72 1 79 -4 2 -6 -11 -4 -30z"/>
<path d="M696 7556 c15 -52 106 -186 182 -267 133 -141 289 -235 462 -278 70
-17 123 -21 300 -24 118 -1 224 -6 235 -11 11 -4 7 0 -8 9 -16 9 -85 38 -155
65 -183 69 -489 206 -480 215 1 1 93 -27 203 -64 197 -67 257 -88 363 -130
l54 -21 -23 37 c-68 113 -168 253 -209 294 -57 57 -146 104 -237 125 -56 13
-102 15 -263 9 -209 -7 -310 5 -393 44 l-38 19 7 -22z"/>
<path d="M9528 7565 c-74 -41 -136 -48 -393 -49 -235 -1 -254 -2 -318 -25
-142 -49 -220 -121 -355 -331 l-69 -107 96 38 c53 20 155 56 226 79 72 23 168
55 214 71 254 87 -80 -65 -517 -236 -79 -31 -89 -43 -21 -24 30 8 89 10 190 5
222 -10 349 14 516 97 158 77 319 230 411 391 21 35 54 107 49 106 -1 -1 -14
-7 -29 -15z"/>
<path d="M2263 6893 c-43 -240 -11 -369 134 -536 98 -112 122 -125 73 -40 -37
64 -106 250 -97 259 2 2 16 -26 32 -63 48 -116 94 -192 162 -264 36 -38 69
-69 74 -69 4 0 -3 19 -16 43 -13 23 -45 114 -70 202 -55 188 -122 333 -197
426 -30 37 -61 77 -69 89 -14 21 -15 18 -26 -47z"/>
<path d="M7899 6868 c-71 -88 -128 -184 -154 -258 -9 -25 -34 -112 -56 -194
-22 -82 -51 -170 -64 -194 -14 -25 -25 -47 -25 -50 0 -4 30 23 66 58 71 70
120 150 170 273 41 102 47 105 23 12 -22 -86 -53 -159 -94 -225 l-27 -45 57
55 c73 71 141 161 174 230 24 51 26 64 25 195 -1 91 -6 155 -15 184 l-14 43
-66 -84z"/>
<path d="M1530 6795 c-158 -39 -240 -41 -325 -9 -30 12 39 -82 117 -158 137
-134 324 -235 492 -265 59 -10 140 -13 298 -11 119 2 215 4 213 6 -1 2 -88 32
-191 66 -207 70 -354 124 -368 137 -17 16 287 -62 431 -110 48 -17 88 -29 89
-28 4 5 -201 246 -234 275 -52 45 -127 87 -191 106 -79 23 -214 19 -331 -9z"/>
<path d="M8405 6811 c-113 -28 -201 -93 -322 -240 -53 -64 -103 -124 -110
-133 -11 -12 11 -8 94 19 117 38 368 103 393 102 27 -1 -70 -39 -294 -115
-121 -41 -225 -78 -233 -82 -7 -5 100 -8 239 -7 214 0 263 3 317 18 144 41
291 127 404 236 62 59 157 171 157 184 0 3 -15 -2 -32 -11 -50 -25 -179 -20
-315 12 -112 26 -231 33 -298 17z"/>
<path d="M4891 6295 c-19 -9 -51 -34 -72 -56 l-37 -41 -74 27 c-97 35 -213 44
-291 21 -50 -15 -60 -15 -79 -2 -13 8 -53 20 -91 27 -127 24 -302 -24 -369
-99 l-31 -36 -136 0 c-123 -1 -142 -3 -197 -27 -104 -44 -186 -126 -188 -189
-1 -17 -3 -30 -6 -30 -3 0 -43 -5 -89 -10 -86 -11 -161 -41 -194 -78 -41 -45
-57 -132 -37 -204 22 -76 141 -160 247 -174 l52 -6 -14 -35 c-22 -52 -19 -146
5 -193 41 -80 146 -129 295 -137 83 -5 214 11 268 32 15 6 17 0 17 -48 0 -73
23 -134 67 -179 53 -54 106 -72 198 -66 92 6 193 52 270 123 27 25 51 41 53
35 9 -27 69 -83 111 -105 161 -81 374 -74 477 17 l34 30 20 -25 c32 -40 121
-79 195 -84 64 -6 65 -6 85 -49 25 -50 90 -113 152 -146 35 -18 59 -23 125
-23 76 0 84 2 120 31 21 16 48 50 61 75 21 39 23 54 18 125 l-5 82 50 -25
c201 -96 409 -51 449 98 11 41 6 88 -16 152 -7 20 -11 37 -9 37 2 0 30 -7 62
-15 110 -29 196 -16 282 41 56 37 84 85 85 146 l1 49 40 -4 c98 -10 237 36
297 100 99 104 65 249 -80 342 -55 35 -182 71 -251 71 l-46 0 3 45 c13 152
-77 224 -262 212 -101 -6 -180 -35 -241 -89 l-46 -41 -32 31 c-52 50 -111 72
-199 72 -42 0 -89 -5 -103 -12 -23 -10 -28 -8 -61 31 -43 50 -70 65 -146 80
-63 13 -185 2 -258 -24 l-40 -14 -41 44 c-23 25 -67 57 -98 72 -49 24 -70 28
-161 31 -78 2 -114 -2 -139 -13z"/>
<path d="M2153 6201 c-28 -9 -86 -43 -128 -75 -88 -66 -143 -93 -210 -103
l-46 -6 52 -46 c125 -110 205 -157 346 -201 54 -18 94 -22 193 -23 141 0 187
11 339 86 l85 42 -123 7 c-68 4 -158 14 -201 22 -86 18 -219 59 -160 50 19 -3
179 -7 355 -9 l320 -5 -70 24 c-101 34 -139 51 -245 114 -226 133 -375 169
-507 123z"/>
<path d="M7865 6206 c-75 -21 -133 -48 -251 -117 -127 -73 -192 -102 -282
-129 l-67 -20 320 5 c176 2 338 6 360 9 35 5 32 3 -20 -15 -108 -36 -198 -50
-331 -52 -73 -1 -130 -5 -128 -8 7 -13 189 -97 240 -112 235 -69 531 11 713
193 l55 55 -45 6 c-66 10 -145 47 -219 103 -36 27 -85 58 -110 69 -57 26 -168
32 -235 13z"/>
<path d="M8239 5526 c-19 -13 -54 -49 -78 -80 -51 -66 -63 -123 -37 -174 9
-18 92 -99 184 -182 171 -154 212 -180 266 -166 54 13 166 154 166 209 0 57
-32 97 -193 240 -87 78 -171 150 -186 159 -36 25 -80 22 -122 -6z m221 -252
c90 -82 160 -153 160 -163 0 -10 -11 -28 -25 -41 -20 -19 -29 -21 -47 -13 -38
17 -302 261 -312 287 -12 30 15 76 44 76 11 0 88 -63 180 -146z"/>
<path d="M1939 5334 c-97 -181 -110 -200 -190 -280 l-86 -86 44 -49 45 -48 80
84 c83 88 88 92 336 225 l154 82 -38 39 c-21 22 -42 39 -47 39 -5 0 -59 -29
-120 -65 -60 -36 -111 -64 -112 -63 -3 3 56 106 116 204 l19 31 -48 41 -49 40
-104 -194z"/>
<path d="M7946 5205 c-29 -15 -58 -39 -154 -127 l-54 -48 22 -27 c12 -16 108
-130 213 -254 l191 -227 48 41 c26 22 48 44 48 49 0 7 -79 103 -154 186 -21
24 -21 24 -1 38 51 37 62 33 154 -65 l86 -91 48 46 49 47 -88 88 c-91 92 -116
105 -158 89 -25 -9 -37 2 -16 15 14 9 12 76 -3 101 -25 42 -81 104 -116 129
-42 29 -73 31 -115 10z m85 -170 c30 -31 55 -60 57 -65 4 -10 -57 -70 -70 -70
-4 0 -33 32 -64 70 l-57 71 23 24 c13 14 31 25 41 25 9 0 41 -25 70 -55z"/>
<path d="M2495 4988 c-27 -35 -114 -148 -194 -252 l-145 -189 55 -51 c101 -94
178 -146 216 -146 19 0 43 5 54 11 21 11 237 296 276 364 27 47 30 106 6 142
-18 26 -199 183 -212 183 -4 0 -30 -28 -56 -62z m149 -142 c25 -32 32 -19
-113 -221 -116 -161 -126 -167 -182 -117 -24 21 -30 33 -23 44 5 9 65 90 134
181 115 153 127 164 145 153 10 -7 28 -25 39 -40z"/>
<path d="M7533 4879 l-112 -80 76 -117 c222 -342 278 -422 290 -418 15 6 212
143 231 160 10 9 6 20 -19 54 l-31 42 -61 -44 c-34 -23 -67 -46 -73 -49 -7 -4
-31 23 -58 63 -25 38 -46 72 -46 74 0 2 25 21 55 41 l54 38 -17 29 c-35 60
-42 61 -101 22 -29 -20 -54 -34 -55 -32 -2 2 -22 31 -44 65 l-42 61 65 47 c41
29 63 51 58 58 -16 27 -47 67 -52 67 -3 0 -56 -37 -118 -81z"/>
<path d="M2873 4717 c-23 -40 -100 -166 -171 -282 l-129 -210 135 -77 136 -77
28 47 27 46 -67 38 c-37 21 -71 39 -77 41 -12 5 1 35 49 110 l36 56 57 -35
c31 -19 60 -31 63 -27 4 5 17 25 29 45 l22 37 -60 38 -60 38 34 55 c19 30 36
60 39 65 2 6 36 -7 75 -28 40 -22 74 -37 75 -35 15 19 47 80 45 82 -2 1 -49
28 -104 61 -55 32 -109 64 -120 71 -18 12 -23 8 -62 -59z"/>
<path d="M7195 4673 c-88 -47 -161 -87 -163 -88 -4 -4 26 -64 40 -82 8 -10 21
-7 58 12 l48 24 15 -22 c7 -12 64 -120 126 -239 62 -120 116 -218 119 -218 4
0 30 15 58 33 l51 32 -123 230 c-68 127 -124 235 -124 240 0 6 25 23 55 38
l56 27 -27 48 c-15 26 -28 48 -28 49 -1 1 -73 -37 -161 -84z"/>
<path d="M3105 4300 c-76 -160 -136 -292 -134 -294 2 -2 62 -31 132 -64 l128
-61 20 46 c11 25 18 47 17 48 -2 2 -32 17 -68 35 -36 18 -66 34 -68 35 -2 2
49 115 112 251 64 136 115 248 113 248 -1 1 -23 11 -50 24 -26 12 -51 22 -56
22 -4 0 -70 -131 -146 -290z"/>
<path d="M6812 4483 c-71 -32 -121 -61 -118 -67 2 -6 57 -139 122 -296 65
-157 119 -286 120 -288 1 -2 63 23 138 55 148 63 141 54 110 129 l-14 33 -74
-35 c-41 -19 -77 -34 -79 -34 -3 0 -9 12 -15 28 -5 15 -19 51 -31 80 l-21 53
57 26 c32 14 60 28 62 30 3 2 -5 24 -17 48 -24 49 -27 49 -102 10 -16 -8 -31
-15 -34 -15 -3 0 -22 32 -41 70 l-36 71 78 36 c43 20 79 38 81 39 8 5 -40 84
-51 83 -6 0 -67 -26 -135 -56z"/>
<path d="M6480 4355 c-52 -18 -103 -34 -112 -34 -10 -1 -18 -7 -18 -13 0 -7
31 -123 69 -258 105 -376 100 -361 119 -356 54 15 258 79 260 81 4 4 -23 96
-28 97 -3 0 -38 -10 -78 -22 -41 -12 -75 -20 -77 -18 -6 6 -45 140 -45 153 0
7 24 21 53 30 28 10 55 21 60 24 7 7 -9 69 -23 84 -4 5 -33 1 -64 -8 -32 -9
-59 -15 -61 -13 -10 10 -43 144 -37 149 4 4 38 17 75 29 73 24 71 20 46 88
-11 28 -24 27 -139 -13z"/>
<path d="M3790 4345 c-5 -13 -41 -127 -80 -252 -40 -125 -80 -252 -91 -282
-10 -30 -17 -56 -16 -57 4 -4 268 -84 276 -84 5 0 11 12 15 28 3 15 8 37 12
48 5 20 -2 24 -70 44 -42 13 -76 26 -76 29 0 5 42 153 45 158 0 1 30 -6 65
-17 35 -11 65 -18 65 -17 9 15 25 90 21 96 -3 4 -27 14 -53 21 -27 7 -52 16
-57 21 -6 5 31 159 39 159 1 0 35 -11 75 -25 40 -14 74 -24 75 -22 5 9 26 90
23 92 -2 2 -55 20 -118 40 -63 20 -121 38 -128 40 -7 3 -17 -6 -22 -20z"/>
<path d="M6110 4251 c-84 -20 -115 -31 -113 -41 4 -38 127 -596 133 -603 7 -8
120 12 120 22 0 3 -13 61 -29 129 -20 86 -25 125 -17 127 6 2 35 9 64 15 57
13 57 14 40 71 -13 44 -13 44 -85 25 l-52 -14 -17 77 c-9 42 -18 79 -20 83 -2
3 30 14 72 24 l76 18 -6 40 c-11 67 -2 65 -166 27z"/>
<path d="M4333 4163 c-49 -246 -97 -460 -105 -470 -13 -17 -39 -16 -62 0 -16
11 -16 18 -4 78 l14 66 -57 14 -57 15 -16 -62 c-23 -92 -21 -140 8 -169 30
-30 114 -55 187 -55 51 0 60 3 82 30 31 37 26 16 87 310 28 135 53 252 56 262
4 13 -6 19 -46 27 -75 16 -74 16 -87 -46z"/>
<path d="M4560 4182 c0 -5 -16 -142 -35 -303 -19 -162 -35 -303 -35 -315 0
-19 10 -22 142 -37 78 -10 142 -16 144 -15 1 2 4 26 5 53 l4 50 -80 8 c-43 4
-80 9 -81 10 0 1 3 41 9 90 10 96 4 91 94 78 51 -7 51 -7 57 22 8 41 7 77 -1
75 -5 -1 -35 1 -68 5 l-60 7 9 85 c8 71 12 85 25 81 9 -3 46 -8 84 -12 63 -6
67 -5 67 14 0 11 3 33 6 49 l6 30 -114 12 c-62 7 -128 15 -145 18 -19 3 -33 1
-33 -5z"/>
<path d="M5760 4184 c-8 -1 -40 -6 -71 -9 l-56 -6 -13 -320 c-7 -175 -11 -321
-8 -324 2 -3 31 -1 64 3 l59 8 -3 56 -2 57 37 6 c21 4 50 9 65 11 25 5 27 2
43 -51 l16 -57 57 7 c31 4 59 9 61 11 2 2 -33 124 -79 271 -45 148 -87 285
-92 306 -11 37 -24 43 -78 31z m28 -252 l40 -152 -24 -5 c-13 -3 -36 -8 -51
-11 l-26 -5 6 77 c4 42 7 118 7 167 0 50 2 88 4 86 2 -2 22 -73 44 -157z"/>
<path d="M5202 4135 c-18 -8 -37 -26 -43 -42 -15 -38 -6 -511 10 -541 21 -39
67 -54 157 -53 156 1 192 37 178 176 l-7 65 -36 0 c-74 0 -80 -6 -83 -73 -3
-55 -5 -61 -28 -67 -14 -4 -35 -4 -47 1 -20 7 -21 15 -25 216 -2 114 -2 214 0
221 6 17 52 27 71 15 11 -7 17 -28 19 -62 l3 -52 61 3 62 3 -3 70 c-3 77 -18
111 -57 125 -39 15 -194 11 -232 -5z"/>
</g>
</svg>
